<svg width="1152" height="576" xmlns="http://www.w3.org/2000/svg" xmlns:xlink="http://www.w3.org/1999/xlink"><g><g class="parliament-chart"><circle cx="10.57355280603781" cy="558.275840276597" r="10" fill="#eb558e"/><circle cx="52.61936768567671" cy="558.2801409847036" r="10" fill="#eb558e"/><circle cx="94.67312052991178" cy="558.2856111483668" r="10" fill="#eb558e"/><circle cx="136.737064273803" cy="558.292716224959" r="10" fill="#eb558e"/><circle cx="178.81439052994364" cy="558.3021782877224" r="10" fill="#eb558e"/><circle cx="220.90977310508896" cy="558.3151663319655" r="10" fill="#eb558e"/><circle cx="263.0303363533265" cy="558.3336738121332" r="10" fill="#eb558e"/><circle cx="12.361462648302108" cy="532.1011935080904" r="10" fill="#eb558e"/><circle cx="305.18749051187365" cy="558.3613272354881" r="10" fill="#eb558e"/><circle cx="54.5029216504837" cy="532.595359224031" r="10" fill="#eb558e"/><circle cx="96.6616086965019" cy="533.166340360008" r="10" fill="#eb558e"/><circle cx="347.4006871051554" cy="558.4052935703542" r="10" fill="#eb558e"/><circle cx="139.09944046253628" cy="531.6165071585345" r="10" fill="#eb558e"/><circle cx="181.34425115949887" cy="532.2636920420262" r="10" fill="#eb558e"/><circle cx="389.705885715934" cy="558.481383434874" r="10" fill="#eb558e"/><circle cx="15.360391918791606" cy="506.03751805180156" r="10" fill="#eb558e"/><circle cx="223.62779424251124" cy="533.056523007373" r="10" fill="#eb558e"/><circle cx="57.64618497259562" cy="507.03414475132683" r="10" fill="#eb558e"/><circle cx="99.96010879310148" cy="508.1853126141304" r="10" fill="#eb558e"/><circle cx="266.53063393722084" cy="530.6019852797717" r="10" fill="#eb558e"/><circle cx="432.17719634734794" cy="558.6302637455984" r="10" fill="#eb558e"/><circle cx="143.08033678026231" cy="505.1334292422462" r="10" fill="#eb558e"/><circle cx="19.563897194337187" cy="480.1408136580259" r="10" fill="#eb558e"/><circle cx="309.06151459668774" cy="531.5212243051242" r="10" fill="#eb558e"/><circle cx="185.57926799086886" cy="506.44765839604736" r="10" fill="#eb558e"/><circle cx="62.04156489956222" cy="481.6582423057124" r="10" fill="#eb558e"/><circle cx="104.55960615584019" cy="483.41080002280535" r="10" fill="#eb558e"/><circle cx="228.14022529956935" cy="508.05602966308584" r="10" fill="#eb558e"/><circle cx="351.7120137262053" cy="532.8098467488946" r="10" fill="#eb558e"/><circle cx="24.96294693039772" cy="454.4667213272793" r="10" fill="#eb558e"/><circle cx="474.99195270344313" cy="558.9836037878634" r="10" fill="#eb558e"/><circle cx="148.66500579605884" cy="478.94159037215786" r="10" fill="#eb558e"/><circle cx="67.67844411164646" cy="456.52894899332324" r="10" fill="#eb558e"/><circle cx="272.48324188219044" cy="503.29145451442025" r="10" fill="#eb558e"/><circle cx="191.5011431397935" cy="480.9656185347482" r="10" fill="#eb558e"/><circle cx="110.44753054931334" cy="458.9105103007568" r="10" fill="#eb558e"/><circle cx="31.545940866006163" cy="429.07040376146085" r="10" fill="#eb558e"/><circle cx="234.42408730426115" cy="483.44099808056626" r="10" fill="#eb558e"/><circle cx="315.58890083265334" cy="505.2002741541745" r="10" fill="#eb558e"/><circle cx="74.54320636863463" cy="431.7069662202498" r="10" fill="#eb558e"/><circle cx="155.83275882226337" cy="453.13801953461655" r="10" fill="#eb558e"/><circle cx="396.7751572346013" cy="526.9833219598142" r="10" fill="#eb558e"/><circle cx="117.60779052051316" cy="434.75140172298853" r="10" fill="#eb558e"/><circle cx="39.29873494779554" cy="404.006426842673" r="10" fill="#eb558e"/><circle cx="199.0842904538697" cy="455.9276705839814" r="10" fill="#eb558e"/><circle cx="358.8797874928106" cy="507.86315449412245" r="10" fill="#eb558e"/><circle cx="82.61926940073118" cy="407.25225306443224" r="10" fill="#eb558e"/><circle cx="280.84099027825494" cy="476.618496789792" r="10" fill="#eb558e"/><circle cx="242.4473805014112" cy="459.3367771270689" r="10" fill="#eb558e"/><circle cx="164.55704255675886" cy="427.8183073574867" r="10" fill="#eb558e"/><circle cx="126.0208173761024" cy="410.99950013059583" r="10" fill="#eb558e"/><circle cx="48.20467171955261" cy="379.3286423943556" r="10" fill="#eb558e"/><circle cx="91.88712496408573" cy="383.22388144069294" r="10" fill="#eb558e"/><circle cx="208.2959460605079" cy="431.4419939186942" r="10" fill="#eb558e"/><circle cx="324.70476715693" cy="479.66010639669554" r="10" fill="#eb558e"/><circle cx="441.11358825335213" cy="527.8782188746968" r="10" fill="#eb558e"/><circle cx="58.24461611200434" cy="355.090072476627" r="10" fill="#eb558e"/><circle cx="135.6636186628407" cy="387.7197184848835" r="10" fill="#eb558e"/><circle cx="174.80553745101844" cy="403.0762519898537" r="10" fill="#eb558e"/><circle cx="252.1692473072888" cy="435.8661144327343" r="10" fill="#eb558e"/><circle cx="291.5376502988015" cy="450.7944750960944" r="10" fill="#eb558e"/><circle cx="102.32438596419672" cy="359.6798934087709" r="10" fill="#eb558e"/><circle cx="368.8127223434403" cy="483.88292846356387" r="10" fill="#eb558e"/><circle cx="219.09630992706468" cy="407.6143817613197" r="10" fill="#eb558e"/><circle cx="69.39699655594143" cy="331.34279546443366" r="10" fill="#eb558e"/><circle cx="146.50984100500546" cy="364.9756794629354" r="10" fill="#eb558e"/><circle cx="409.128795335845" cy="497.15900131114256" r="10" fill="#eb558e"/><circle cx="186.54027743950132" cy="379.0035116220563" r="10" fill="#eb558e"/><circle cx="113.90584053336181" cy="336.67716096903496" r="10" fill="#eb558e"/><circle cx="336.3185020765993" cy="455.15458968845405" r="10" fill="#eb558e"/><circle cx="263.54018037157294" cy="413.14853131414486" r="10" fill="#eb558e"/><circle cx="81.63785133034321" cy="308.1378341532795" r="10" fill="#eb558e"/><circle cx="158.52984212707344" cy="342.8295415794794" r="10" fill="#eb558e"/><circle cx="231.43871782152792" cy="384.5477840898167" r="10" fill="#eb558e"/><circle cx="304.4884590138801" cy="426.0240252483994" r="10" fill="#eb558e"/><circle cx="126.60351293154787" cy="314.2712486845493" r="10" fill="#eb558e"/><circle cx="199.71779058685462" cy="355.6892649333038" r="10" fill="#eb558e"/><circle cx="487.06403809503854" cy="529.8390115093476" r="10" fill="#eb558e"/><circle cx="94.94088004592192" cy="285.52504613294366" r="10" fill="#eb558e"/><circle cx="381.384316168586" cy="461.174571765663" r="10" fill="#eb558e"/><circle cx="276.5022746871355" cy="391.2997141274662" r="10" fill="#eb558e"/><circle cx="171.69077186483054" cy="321.3418293102452" r="10" fill="#eb558e"/><circle cx="140.3867311235698" cy="292.51627946133897" r="10" fill="#eb558e"/><circle cx="245.26984293077373" cy="362.34186283028146" r="10" fill="#eb558e"/><circle cx="350.3146653447339" cy="431.9273082785694" r="10" fill="#eb558e"/><circle cx="109.2775001534705" cy="263.55301666473144" r="10" fill="#eb558e"/><circle cx="214.28926013188743" cy="333.21988072476677" r="10" fill="#eb558e"/><circle cx="456.53958440084347" cy="499.8142560950533" r="10" fill="#eb558e"/><circle cx="319.590791072231" cy="402.50343430278264" r="10" fill="#eb558e"/><circle cx="185.95666194350582" cy="300.5712676810856" r="10" fill="#eb558e"/><circle cx="155.22220086934271" cy="271.46480381106727" r="10" fill="#eb558e"/><circle cx="290.9895224638076" cy="370.4309251506289" r="10" fill="#eb558e"/><circle cx="124.61690835560103" cy="242.2689542924174" r="10" fill="#eb558e"/><circle cx="426.40255837019197" cy="469.88777861899854" r="10" fill="#eb558e"/><circle cx="260.5299262652846" cy="341.09256125596886" r="10" fill="#eb558e"/><circle cx="230.20070533172196" cy="311.678597962003" r="10" fill="#eb558e"/><circle cx="396.43446189388516" cy="440.0272894610548" r="10" fill="#eb558e"/><circle cx="201.28852427757516" cy="280.57462177491624" r="10" fill="#eb558e"/><circle cx="171.07408614823527" cy="251.16767291193418" r="10" fill="#eb558e"/><circle cx="366.5541354336871" cy="410.2091407879121" r="10" fill="#eb558e"/><circle cx="140.92614678992635" cy="221.71858941116818" r="10" fill="#eb558e"/><circle cx="336.72497192947446" cy="380.41908513005404" r="10" fill="#eb558e"/><circle cx="306.92814926451956" cy="350.64843599455764" r="10" fill="#eb558e"/><circle cx="277.15303485483366" cy="320.891689453189" r="10" fill="#eb558e"/><circle cx="247.39318143617385" cy="291.14521741201725" r="10" fill="#eb558e"/><circle cx="217.64445752357966" cy="261.4065415951015" r="10" fill="#eb558e"/><circle cx="187.90409572325757" cy="231.67391577442015" r="10" fill="#eb558e"/><circle cx="158.17017384148454" cy="201.94607601237942" r="10" fill="#eb558e"/><circle cx="194.19607601237948" cy="165.92017384148448" r="10" fill="#eb558e"/><circle cx="223.9239157744202" cy="195.6540957232575" r="10" fill="#eb558e"/><circle cx="253.6565415951016" cy="225.3944575235796" r="10" fill="#eb558e"/><circle cx="283.39521741201736" cy="255.1431814361738" r="10" fill="#eb558e"/><circle cx="313.14168945318903" cy="284.90303485483366" r="10" fill="#eb558e"/><circle cx="342.8984359945577" cy="314.67814926451956" r="10" fill="#eb558e"/><circle cx="372.6690851300541" cy="344.4749719294744" r="10" fill="#eb558e"/><circle cx="213.9685894111683" cy="148.6761467899263" r="10" fill="#eb558e"/><circle cx="402.45914078791213" cy="374.30413543368707" r="10" fill="#eb558e"/><circle cx="243.4176729119343" cy="178.8240861482352" r="10" fill="#eb558e"/><circle cx="272.82462177491635" cy="209.03852427757505" r="10" fill="#eb558e"/><circle cx="432.27728946105486" cy="404.1844618938851" r="10" fill="#eb558e"/><circle cx="303.92859796200304" cy="237.9507053317219" r="10" fill="#eb558e"/><circle cx="333.3425612559689" cy="268.27992626528453" r="10" fill="#eb558e"/><circle cx="462.1377786189986" cy="434.15255837019197" r="10" fill="#eb558e"/><circle cx="234.5189542924175" cy="132.36690835560097" r="10" fill="#eb558e"/><circle cx="362.68092515062904" cy="298.7395224638076" r="10" fill="#eb558e"/><circle cx="263.7148038110673" cy="162.97220086934266" r="10" fill="#eb558e"/><circle cx="292.8212676810857" cy="193.70666194350576" r="10" fill="#eb558e"/><circle cx="394.7534343027827" cy="327.340791072231" r="10" fill="#eb558e"/><circle cx="492.06425609505334" cy="464.28958440084347" r="10" fill="#eb558e"/><circle cx="325.46988072476677" cy="222.03926013188737" r="10" fill="#eb558e"/><circle cx="255.8030166647315" cy="117.02750015347044" r="10" fill="#eb558e"/><circle cx="424.17730827856946" cy="358.06466534473384" r="10" fill="#eb558e"/><circle cx="354.59186283028146" cy="253.01984293077368" r="10" fill="#eb558e"/><circle cx="284.766279461339" cy="148.13673112356975" r="10" fill="#eb558e"/><circle cx="313.5918293102453" cy="179.44077186483048" r="10" fill="#eb558e"/><circle cx="383.54971412746625" cy="284.2522746871355" r="10" fill="#eb558e"/><circle cx="453.4245717656631" cy="389.13431616858594" r="10" fill="#eb558e"/><circle cx="277.7750461329437" cy="102.6908800459218" r="10" fill="#eb558e"/><circle cx="522.0890115093478" cy="494.81403809503854" r="10" fill="#eb558e"/><circle cx="347.9392649333038" cy="207.46779058685456" r="10" fill="#eb558e"/><circle cx="306.52124868454933" cy="134.3535129315478" r="10" fill="#eb558e"/><circle cx="418.2740252483995" cy="312.23845901388006" r="10" fill="#eb558e"/><circle cx="376.7977840898167" cy="239.18871782152786" r="10" fill="#eb558e"/><circle cx="335.0795415794795" cy="166.27984212707344" r="10" fill="#eb558e"/><circle cx="300.38783415327964" cy="89.38785133034321" r="10" fill="#eb558e"/><circle cx="405.39853131414503" cy="271.29018037157283" r="10" fill="#eb558e"/><circle cx="447.40458968845405" cy="344.06850207659926" r="10" fill="#eb558e"/><circle cx="328.92716096903507" cy="121.6558405333617" r="10" fill="#eb558e"/><circle cx="371.2535116220564" cy="194.29027743950132" r="10" fill="#eb558e"/><circle cx="489.4090013111426" cy="416.878795335845" r="10" fill="#eb558e"/><circle cx="357.22567946293543" cy="154.2598410050054" r="10" fill="#eb558e"/><circle cx="323.5927954644337" cy="77.14699655594131" r="10" fill="#eb558e"/><circle cx="399.8643817613196" cy="226.84630992706474" r="10" fill="#eb558e"/><circle cx="476.132928463564" cy="376.56272234344027" r="10" fill="#eb558e"/><circle cx="351.929893408771" cy="110.07438596419672" r="10" fill="#eb558e"/><circle cx="443.0444750960944" cy="299.2876502988015" r="10" fill="#eb558e"/><circle cx="428.11611443273443" cy="259.91924730728874" r="10" fill="#eb558e"/><circle cx="395.32625198985374" cy="182.55553745101844" r="10" fill="#eb558e"/><circle cx="379.9697184848835" cy="143.4136186628407" r="10" fill="#eb558e"/><circle cx="347.3400724766269" cy="65.99461611200434" r="10" fill="#eb558e"/><circle cx="375.473881440693" cy="99.63712496408573" r="10" fill="#eb558e"/><circle cx="423.69199391869427" cy="216.0459460605079" r="10" fill="#eb558e"/><circle cx="471.9101063966956" cy="332.45476715693" r="10" fill="#eb558e"/><circle cx="520.1282188746969" cy="448.86358825335213" r="10" fill="#eb558e"/><circle cx="552.2736271933644" cy="526.4694689843002" r="10" fill="#eb558e"/><circle cx="371.5786423943558" cy="55.95467171955249" r="10" fill="#eb558e"/><circle cx="403.2495001305959" cy="133.7708173761024" r="10" fill="#eb558e"/><circle cx="420.06830735748673" cy="172.30704255675886" r="10" fill="#eb558e"/><circle cx="451.586777127069" cy="250.19738050141115" r="10" fill="#eb558e"/><circle cx="468.86849678979206" cy="288.59099027825494" r="10" fill="#eb558e"/><circle cx="399.50225306443224" cy="90.36926940073118" r="10" fill="#eb558e"/><circle cx="500.11315449412257" cy="366.6297874928106" r="10" fill="#eb558e"/><circle cx="448.1776705839814" cy="206.83429045386976" r="10" fill="#eb558e"/><circle cx="396.25642684267314" cy="47.04873494779554" r="10" fill="#eb558e"/><circle cx="427.0014017229885" cy="125.35779052051316" r="10" fill="#eb558e"/><circle cx="519.2333219598142" cy="404.5251572346013" r="10" fill="#eb558e"/><circle cx="445.38801953461655" cy="163.58275882226337" r="10" fill="#eb558e"/><circle cx="423.9569662202499" cy="82.29320636863463" r="10" fill="#eb558e"/><circle cx="497.4502741541745" cy="323.33890083265334" r="10" fill="#eb558e"/><circle cx="475.6909980805663" cy="242.1740873042611" r="10" fill="#eb558e"/><circle cx="421.3204037614609" cy="39.29594086600605" r="10" fill="#eb558e"/><circle cx="451.16051030075687" cy="118.19753054931329" r="10" fill="#eb558e"/><circle cx="473.2156185347483" cy="199.25114313979344" r="10" fill="#eb558e"/><circle cx="495.5414545144203" cy="280.23324188219044" r="10" fill="#eb558e"/><circle cx="448.77894899332324" cy="75.42844411164651" r="10" fill="#eb558e"/><circle cx="471.19159037215786" cy="156.41500579605884" r="10" fill="#eb558e"/><circle cx="551.2336037878634" cy="482.74195270344313" r="10" fill="#eb558e"/><circle cx="446.7167213272794" cy="32.71294693039772" r="10" fill="#eb558e"/><circle cx="525.0598467488946" cy="359.4620137262053" r="10" fill="#eb558e"/><circle cx="500.30602966308606" cy="235.89022529956935" r="10" fill="#eb558e"/><circle cx="475.66080002280523" cy="112.30960615584019" r="10" fill="#eb558e"/><circle cx="473.9082423057125" cy="69.79156489956222" r="10" fill="#eb558e"/><circle cx="498.6976583960474" cy="193.3292679908688" r="10" fill="#eb558e"/><circle cx="523.7712243051242" cy="316.81151459668774" r="10" fill="#eb558e"/><circle cx="472.3908136580258" cy="27.313897194337187" r="10" fill="#eb558e"/><circle cx="497.3834292422464" cy="150.83033678026231" r="10" fill="#eb558e"/><circle cx="550.8802637455984" cy="439.92719634734794" r="10" fill="#eb558e"/><circle cx="522.8519852797718" cy="274.28063393722084" r="10" fill="#eb558e"/><circle cx="500.43531261413034" cy="107.71010879310148" r="10" fill="#eb558e"/><circle cx="499.28414475132695" cy="65.3961849725955" r="10" fill="#eb558e"/><circle cx="525.3065230073732" cy="231.37779424251124" r="10" fill="#eb558e"/><circle cx="498.2875180518018" cy="23.110391918791606" r="10" fill="#eb558e"/><circle cx="550.731383434874" cy="397.455885715934" r="10" fill="#eb558e"/><circle cx="524.5136920420262" cy="189.09425115949887" r="10" fill="#eb558e"/><circle cx="523.8665071585345" cy="146.84944046253628" r="10" fill="#eb558e"/><circle cx="550.6552935703542" cy="355.1506871051554" r="10" fill="#eb558e"/><circle cx="525.4163403600079" cy="104.4116086965019" r="10" fill="#eb558e"/><circle cx="524.8453592240312" cy="62.2529216504837" r="10" fill="#eb558e"/><circle cx="550.6113272354881" cy="312.93749051187365" r="10" fill="#eb558e"/><circle cx="524.3511935080905" cy="20.11146264830211" r="10" fill="#eb558e"/><circle cx="550.5836738121333" cy="270.7803363533265" r="10" fill="#eb558e"/><circle cx="550.5651663319657" cy="228.65977310508896" r="10" fill="#eb558e"/><circle cx="550.5521782877225" cy="186.56439052994364" r="10" fill="#eb558e"/><circle cx="550.542716224959" cy="144.487064273803" r="10" fill="#eb558e"/><circle cx="550.5356111483667" cy="102.42312052991178" r="10" fill="#eb558e"/><circle cx="550.5301409847037" cy="60.36936768567671" r="10" fill="#eb558e"/><circle cx="550.5258402765971" cy="18.32355280603781" r="10" fill="#eb558e"/><circle cx="601.474159723403" cy="18.32355280603781" r="10" fill="#89df55"/><circle cx="601.4698590152963" cy="60.36936768567671" r="10" fill="#89df55"/><circle cx="601.4643888516333" cy="102.42312052991178" r="10" fill="#89df55"/><circle cx="601.457283775041" cy="144.487064273803" r="10" fill="#89df55"/><circle cx="601.4478217122775" cy="186.56439052994364" r="10" fill="#89df55"/><circle cx="601.4348336680343" cy="228.65977310508896" r="10" fill="#89df55"/><circle cx="601.4163261878668" cy="270.7803363533265" r="10" fill="#89df55"/><circle cx="627.6488064919095" cy="20.11146264830211" r="10" fill="#89df55"/><circle cx="601.3886727645119" cy="312.93749051187365" r="10" fill="#89df55"/><circle cx="627.1546407759689" cy="62.2529216504837" r="10" fill="#89df55"/><circle cx="626.5836596399922" cy="104.4116086965019" r="10" fill="#89df55"/><circle cx="601.3447064296458" cy="355.1506871051554" r="10" fill="#89df55"/><circle cx="628.1334928414655" cy="146.84944046253628" r="10" fill="#89df55"/><circle cx="627.4863079579738" cy="189.09425115949887" r="10" fill="#89df55"/><circle cx="601.268616565126" cy="397.455885715934" r="10" fill="#89df55"/><circle cx="653.7124819481984" cy="23.110391918791606" r="10" fill="#89df55"/><circle cx="626.6934769926269" cy="231.37779424251124" r="10" fill="#89df55"/><circle cx="652.715855248673" cy="65.39618497259562" r="10" fill="#89df55"/><circle cx="651.5646873858695" cy="107.71010879310148" r="10" fill="#89df55"/><circle cx="629.1480147202283" cy="274.28063393722084" r="10" fill="#89df55"/><circle cx="601.1197362544016" cy="439.92719634734794" r="10" fill="#89df55"/><circle cx="654.6165707577537" cy="150.83033678026231" r="10" fill="#89df55"/><circle cx="679.6091863419742" cy="27.313897194337187" r="10" fill="#89df55"/><circle cx="628.2287756948757" cy="316.81151459668774" r="10" fill="#89df55"/><circle cx="653.3023416039526" cy="193.32926799086886" r="10" fill="#89df55"/><circle cx="678.0917576942876" cy="69.79156489956222" r="10" fill="#89df55"/><circle cx="676.3391999771948" cy="112.30960615584019" r="10" fill="#89df55"/><circle cx="651.693970336914" cy="235.89022529956935" r="10" fill="#89df55"/><circle cx="626.9401532511054" cy="359.4620137262053" r="10" fill="#89df55"/><circle cx="705.2832786727207" cy="32.71294693039772" r="10" fill="#89df55"/><circle cx="600.7663962121366" cy="482.74195270344313" r="10" fill="#89df55"/><circle cx="680.8084096278421" cy="156.41500579605884" r="10" fill="#89df55"/><circle cx="703.2210510066767" cy="75.42844411164651" r="10" fill="#89df55"/><circle cx="656.4585454855797" cy="280.23324188219044" r="10" fill="#89df55"/><circle cx="678.7843814652517" cy="199.25114313979344" r="10" fill="#89df55"/><circle cx="700.8394896992431" cy="118.19753054931334" r="10" fill="#89df55"/><circle cx="730.6795962385391" cy="39.29594086600616" r="10" fill="#89df55"/><circle cx="676.3090019194337" cy="242.17408730426115" r="10" fill="#89df55"/><circle cx="654.5497258458254" cy="323.33890083265334" r="10" fill="#89df55"/><circle cx="728.0430337797502" cy="82.29320636863463" r="10" fill="#89df55"/><circle cx="706.6119804653835" cy="163.58275882226337" r="10" fill="#89df55"/><circle cx="632.7666780401858" cy="404.52515723460124" r="10" fill="#89df55"/><circle cx="724.9985982770115" cy="125.35779052051316" r="10" fill="#89df55"/><circle cx="755.7435731573269" cy="47.04873494779554" r="10" fill="#89df55"/><circle cx="703.8223294160186" cy="206.83429045386976" r="10" fill="#89df55"/><circle cx="651.8868455058774" cy="366.6297874928106" r="10" fill="#89df55"/><circle cx="752.4977469355679" cy="90.36926940073118" r="10" fill="#89df55"/><circle cx="683.1315032102079" cy="288.59099027825494" r="10" fill="#89df55"/><circle cx="700.4132228729311" cy="250.1973805014112" r="10" fill="#89df55"/><circle cx="731.9316926425133" cy="172.30704255675886" r="10" fill="#89df55"/><circle cx="748.7504998694042" cy="133.7708173761024" r="10" fill="#89df55"/><circle cx="780.4213576056444" cy="55.95467171955261" r="10" fill="#89df55"/><circle cx="776.5261185593071" cy="99.63712496408573" r="10" fill="#89df55"/><circle cx="728.3080060813057" cy="216.0459460605079" r="10" fill="#89df55"/><circle cx="680.0898936033044" cy="332.45476715693" r="10" fill="#89df55"/><circle cx="631.8717811253031" cy="448.86358825335213" r="10" fill="#89df55"/><circle cx="599.7263728066356" cy="526.4694689843002" r="10" fill="#89df55"/><circle cx="804.6599275233732" cy="65.99461611200434" r="10" fill="#89df55"/><circle cx="772.0302815151165" cy="143.4136186628407" r="10" fill="#89df55"/><circle cx="756.6737480101463" cy="182.55553745101844" r="10" fill="#89df55"/><circle cx="723.8838855672657" cy="259.9192473072888" r="10" fill="#89df55"/><circle cx="708.9555249039056" cy="299.2876502988015" r="10" fill="#89df55"/><circle cx="800.070106591229" cy="110.07438596419667" r="10" fill="#89df55"/><circle cx="675.8670715364361" cy="376.5627223434403" r="10" fill="#89df55"/><circle cx="752.1356182386803" cy="226.84630992706474" r="10" fill="#89df55"/><circle cx="828.4072045355664" cy="77.14699655594154" r="10" fill="#89df55"/><circle cx="794.7743205370645" cy="154.25984100500534" r="10" fill="#89df55"/><circle cx="662.5909986888574" cy="416.878795335845" r="10" fill="#89df55"/><circle cx="780.7464883779437" cy="194.29027743950132" r="10" fill="#89df55"/><circle cx="823.072839030965" cy="121.65584053336181" r="10" fill="#89df55"/><circle cx="704.595410311546" cy="344.0685020765993" r="10" fill="#89df55"/><circle cx="746.6014686858551" cy="271.29018037157294" r="10" fill="#89df55"/><circle cx="851.6121658467205" cy="89.38785133034321" r="10" fill="#89df55"/><circle cx="816.9204584205206" cy="166.27984212707344" r="10" fill="#89df55"/><circle cx="775.2022159101833" cy="239.18871782152786" r="10" fill="#89df55"/><circle cx="733.7259747516006" cy="312.23845901388006" r="10" fill="#89df55"/><circle cx="845.4787513154506" cy="134.3535129315478" r="10" fill="#89df55"/><circle cx="804.0607350666962" cy="207.46779058685456" r="10" fill="#89df55"/><circle cx="629.9109884906524" cy="494.81403809503854" r="10" fill="#89df55"/><circle cx="874.2249538670563" cy="102.69088004592192" r="10" fill="#89df55"/><circle cx="698.575428234337" cy="389.13431616858594" r="10" fill="#89df55"/><circle cx="768.4502858725339" cy="284.2522746871356" r="10" fill="#89df55"/><circle cx="838.4081706897546" cy="179.44077186483042" r="10" fill="#89df55"/><circle cx="867.2337205386611" cy="148.1367311235698" r="10" fill="#89df55"/><circle cx="797.4081371697187" cy="253.01984293077373" r="10" fill="#89df55"/><circle cx="727.8226917214306" cy="358.06466534473384" r="10" fill="#89df55"/><circle cx="896.1969833352684" cy="117.02750015347044" r="10" fill="#89df55"/><circle cx="826.5301192752333" cy="222.0392601318875" r="10" fill="#89df55"/><circle cx="659.9357439049468" cy="464.28958440084347" r="10" fill="#89df55"/><circle cx="757.2465656972173" cy="327.340791072231" r="10" fill="#89df55"/><circle cx="859.1787323189144" cy="193.70666194350576" r="10" fill="#89df55"/><circle cx="888.2851961889327" cy="162.97220086934266" r="10" fill="#89df55"/><circle cx="789.3190748493711" cy="298.73952246380765" r="10" fill="#89df55"/><circle cx="917.4810457075827" cy="132.36690835560108" r="10" fill="#89df55"/><circle cx="689.8622213810014" cy="434.15255837019197" r="10" fill="#89df55"/><circle cx="818.6574387440311" cy="268.2799262652845" r="10" fill="#89df55"/><circle cx="848.0714020379971" cy="237.95070533172202" r="10" fill="#89df55"/><circle cx="719.7227105389452" cy="404.18446189388516" r="10" fill="#89df55"/><circle cx="879.1753782250835" cy="209.038524277575" r="10" fill="#89df55"/><circle cx="908.5823270880659" cy="178.82408614823532" r="10" fill="#89df55"/><circle cx="749.5408592120879" cy="374.30413543368707" r="10" fill="#89df55"/><circle cx="938.0314105888319" cy="148.6761467899264" r="10" fill="#89df55"/><circle cx="779.3309148699459" cy="344.4749719294744" r="10" fill="#89df55"/><circle cx="809.1015640054425" cy="314.6781492645196" r="10" fill="#89df55"/><circle cx="838.858310546811" cy="284.90303485483366" r="10" fill="#89df55"/><circle cx="868.6047825879828" cy="255.14318143617385" r="10" fill="#89df55"/><circle cx="898.3434584048985" cy="225.39445752357955" r="10" fill="#89df55"/><circle cx="928.0760842255798" cy="195.65409572325757" r="10" fill="#89df55"/><circle cx="957.8039239876206" cy="165.92017384148465" r="10" fill="#89df55"/><circle cx="993.8298261585155" cy="201.94607601237942" r="10" fill="#89df55"/><circle cx="964.0959042767424" cy="231.67391577442015" r="10" fill="#89df55"/><circle cx="934.3555424764204" cy="261.40654159510166" r="10" fill="#89df55"/><circle cx="904.6068185638262" cy="291.1452174120173" r="10" fill="#89df55"/><circle cx="874.8469651451663" cy="320.891689453189" r="10" fill="#89df55"/><circle cx="845.0718507354804" cy="350.64843599455764" r="10" fill="#89df55"/><circle cx="815.2750280705257" cy="380.4190851300541" r="10" fill="#89df55"/><circle cx="1011.0738532100736" cy="221.71858941116818" r="10" fill="#89df55"/><circle cx="785.4458645663129" cy="410.20914078791213" r="10" fill="#89df55"/><circle cx="980.9259138517648" cy="251.16767291193418" r="10" fill="#89df55"/><circle cx="950.711475722425" cy="280.5746217749164" r="10" fill="#89df55"/><circle cx="755.5655381061149" cy="440.02728946105486" r="10" fill="#89df55"/><circle cx="921.799294668278" cy="311.67859796200304" r="10" fill="#89df55"/><circle cx="891.4700737347155" cy="341.0925612559689" r="10" fill="#89df55"/><circle cx="725.597441629808" cy="469.8877786189986" r="10" fill="#89df55"/><circle cx="1027.383091644399" cy="242.2689542924174" r="10" fill="#89df55"/><circle cx="861.0104775361924" cy="370.4309251506289" r="10" fill="#89df55"/><circle cx="996.7777991306573" cy="271.46480381106727" r="10" fill="#89df55"/><circle cx="966.0433380564943" cy="300.5712676810857" r="10" fill="#89df55"/><circle cx="832.409208927769" cy="402.5034343027827" r="10" fill="#89df55"/><circle cx="695.4604155991565" cy="499.8142560950533" r="10" fill="#89df55"/><circle cx="937.7107398681126" cy="333.21988072476677" r="10" fill="#89df55"/><circle cx="1042.7224998465294" cy="263.55301666473156" r="10" fill="#89df55"/><circle cx="801.6853346552662" cy="431.92730827856946" r="10" fill="#89df55"/><circle cx="906.7301570692263" cy="362.34186283028146" r="10" fill="#89df55"/><circle cx="1011.6132688764303" cy="292.51627946133897" r="10" fill="#89df55"/><circle cx="980.3092281351696" cy="321.3418293102454" r="10" fill="#89df55"/><circle cx="875.4977253128644" cy="391.29971412746613" r="10" fill="#89df55"/><circle cx="770.6156838314141" cy="461.17457176566313" r="10" fill="#89df55"/><circle cx="1057.0591199540781" cy="285.52504613294377" r="10" fill="#89df55"/><circle cx="664.9359619049615" cy="529.8390115093478" r="10" fill="#89df55"/><circle cx="952.2822094131454" cy="355.68926493330383" r="10" fill="#89df55"/><circle cx="1025.3964870684522" cy="314.2712486845494" r="10" fill="#89df55"/><circle cx="847.5115409861199" cy="426.0240252483995" r="10" fill="#89df55"/><circle cx="920.5612821784722" cy="384.5477840898167" r="10" fill="#89df55"/><circle cx="993.4701578729266" cy="342.82954157947944" r="10" fill="#89df55"/><circle cx="1070.3621486696568" cy="308.1378341532796" r="10" fill="#89df55"/><circle cx="888.4598196284271" cy="413.1485313141449" r="10" fill="#89df55"/><circle cx="815.6814979234007" cy="455.15458968845405" r="10" fill="#89df55"/><circle cx="1038.0941594666383" cy="336.67716096903496" r="10" fill="#89df55"/><circle cx="965.4597225604987" cy="379.0035116220564" r="10" fill="#89df55"/><circle cx="742.871204664155" cy="497.1590013111426" r="10" fill="#89df55"/><circle cx="1005.4901589949947" cy="364.97567946293555" r="10" fill="#89df55"/><circle cx="1082.6030034440587" cy="331.34279546443366" r="10" fill="#89df55"/><circle cx="932.9036900729353" cy="407.6143817613197" r="10" fill="#89df55"/><circle cx="783.1872776565597" cy="483.8829284635639" r="10" fill="#89df55"/><circle cx="1049.6756140358034" cy="359.679893408771" r="10" fill="#89df55"/><circle cx="860.4623497011985" cy="450.7944750960944" r="10" fill="#89df55"/><circle cx="899.8307526927113" cy="435.86611443273443" r="10" fill="#89df55"/><circle cx="977.1944625489816" cy="403.07625198985374" r="10" fill="#89df55"/><circle cx="1016.3363813371593" cy="387.7197184848835" r="10" fill="#89df55"/><circle cx="1093.7553838879958" cy="355.0900724766269" r="10" fill="#89df55"/><circle cx="1060.1128750359144" cy="383.22388144069294" r="10" fill="#89df55"/><circle cx="943.704053939492" cy="431.44199391869427" r="10" fill="#89df55"/><circle cx="827.2952328430699" cy="479.6601063966956" r="10" fill="#89df55"/><circle cx="710.8864117466478" cy="527.8782188746969" r="10" fill="#89df55"/><circle cx="633.2805310156998" cy="560.0236271933644" r="10" fill="#89df55"/><circle cx="1103.7953282804474" cy="379.3286423943557" r="10" fill="#89df55"/><circle cx="1025.9791826238975" cy="410.9995001305959" r="10" fill="#89df55"/><circle cx="987.4429574432411" cy="427.81830735748673" r="10" fill="#89df55"/><circle cx="909.5526194985888" cy="459.33677712706896" r="10" fill="#89df55"/><circle cx="871.1590097217451" cy="476.618496789792" r="10" fill="#89df55"/><circle cx="1069.3807305992689" cy="407.2522530644322" r="10" fill="#89df55"/><circle cx="793.1202125071894" cy="507.86315449412257" r="10" fill="#89df55"/><circle cx="952.9157095461303" cy="455.92767058398135" r="10" fill="#89df55"/><circle cx="1112.7012650522045" cy="404.00642684267314" r="10" fill="#89df55"/><circle cx="1034.3922094794868" cy="434.7514017229885" r="10" fill="#89df55"/><circle cx="755.2248427653988" cy="526.9833219598142" r="10" fill="#89df55"/><circle cx="996.1672411777366" cy="453.13801953461655" r="10" fill="#89df55"/><circle cx="1077.4567936313654" cy="431.7069662202499" r="10" fill="#89df55"/><circle cx="836.4110991673467" cy="505.20027415417456" r="10" fill="#89df55"/><circle cx="917.5759126957389" cy="483.44099808056626" r="10" fill="#89df55"/><circle cx="1120.454059133994" cy="429.07040376146085" r="10" fill="#89df55"/><circle cx="1041.5524694506867" cy="458.91051030075687" r="10" fill="#89df55"/><circle cx="960.4988568602065" cy="480.9656185347482" r="10" fill="#89df55"/><circle cx="879.5167581178096" cy="503.29145451442025" r="10" fill="#89df55"/><circle cx="1084.3215558883535" cy="456.52894899332324" r="10" fill="#89df55"/><circle cx="1003.3349942039412" cy="478.94159037215786" r="10" fill="#89df55"/><circle cx="677.0080472965569" cy="558.9836037878634" r="10" fill="#89df55"/><circle cx="1127.0370530696023" cy="454.4667213272793" r="10" fill="#89df55"/><circle cx="800.2879862737947" cy="532.8098467488946" r="10" fill="#89df55"/><circle cx="923.8597747004306" cy="508.05602966308595" r="10" fill="#89df55"/><circle cx="1047.4403938441599" cy="483.41080002280523" r="10" fill="#89df55"/><circle cx="1089.9584351004378" cy="481.6582423057125" r="10" fill="#89df55"/><circle cx="966.4207320091311" cy="506.4476583960474" r="10" fill="#89df55"/><circle cx="842.9384854033123" cy="531.5212243051242" r="10" fill="#89df55"/><circle cx="1132.4361028056628" cy="480.1408136580258" r="10" fill="#89df55"/><circle cx="1008.9196632197377" cy="505.1334292422464" r="10" fill="#89df55"/><circle cx="719.822803652652" cy="558.6302637455984" r="10" fill="#89df55"/><circle cx="885.4693660627792" cy="530.6019852797717" r="10" fill="#89df55"/><circle cx="1052.0398912068986" cy="508.1853126141304" r="10" fill="#89df55"/><circle cx="1094.3538150274044" cy="507.0341447513269" r="10" fill="#89df55"/><circle cx="928.3722057574887" cy="533.0565230073732" r="10" fill="#89df55"/><circle cx="1136.6396080812083" cy="506.0375180518017" r="10" fill="#89df55"/><circle cx="762.2941142840659" cy="558.481383434874" r="10" fill="#89df55"/><circle cx="970.6557488405011" cy="532.2636920420262" r="10" fill="#89df55"/><circle cx="1012.9005595374638" cy="531.6165071585347" r="10" fill="#89df55"/><circle cx="804.5993128948446" cy="558.4052935703542" r="10" fill="#89df55"/><circle cx="1055.3383913034982" cy="533.1663403600079" r="10" fill="#89df55"/><circle cx="1097.4970783495164" cy="532.5953592240312" r="10" fill="#89df55"/><circle cx="846.8125094881264" cy="558.3613272354881" r="10" fill="#89df55"/><circle cx="1139.6385373516978" cy="532.1011935080907" r="10" fill="#89df55"/><circle cx="888.9696636466736" cy="558.3336738121332" r="10" fill="#89df55"/><circle cx="931.090226894911" cy="558.3151663319657" r="10" fill="#89df55"/><circle cx="973.1856094700563" cy="558.3021782877225" r="10" fill="#89df55"/><circle cx="1015.2629357261969" cy="558.292716224959" r="10" fill="#89df55"/><circle cx="1057.3268794700882" cy="558.2856111483667" r="10" fill="#89df55"/><circle cx="1099.3806323143233" cy="558.2801409847037" r="10" fill="#89df55"/><circle cx="1141.4264471939623" cy="558.2758402765971" r="10" fill="#89df55"/></g></g></svg>